<?xml version="1.0" standalone="no"?>
<!DOCTYPE svg PUBLIC "-//W3C//DTD SVG 20010904//EN"
 "http://www.w3.org/TR/2001/REC-SVG-20010904/DTD/svg10.dtd">
<svg version="1.0" xmlns="http://www.w3.org/2000/svg"
 width="1242.000000pt" height="1242.000000pt" viewBox="0 0 1242.000000 1242.000000"
 preserveAspectRatio="xMidYMid meet">
<metadata>
Created by potrace 1.11, written by Peter Selinger 2001-2013
</metadata>
<g transform="translate(0.000000,1242.000000) scale(0.100000,-0.100000)"
fill="#000000" stroke="none">
<path d="M8073 10709 c-138 -158 -208 -266 -264 -406 -59 -149 -98 -365 -100
-561 l-2 -117 -9 130 c-5 72 -6 189 -3 261 8 187 39 293 111 381 20 24 34 46
31 49 -3 3 -24 -18 -48 -48 -84 -105 -108 -194 -117 -423 l-7 -170 -24 110
c-33 154 -85 323 -133 435 -43 101 -118 244 -124 237 -2 -2 25 -64 60 -138 59
-123 143 -355 133 -366 -3 -2 -13 17 -22 44 -40 110 -107 263 -116 263 -4 0 7
-36 26 -81 19 -44 35 -83 35 -86 0 -3 -31 28 -69 69 -39 41 -103 97 -143 125
-84 58 -268 159 -268 146 0 -4 47 -33 103 -63 195 -105 322 -221 397 -362 21
-40 48 -123 76 -237 24 -97 44 -180 44 -186 0 -5 -19 26 -41 70 -110 215 -271
377 -487 489 -52 26 -96 46 -98 43 -3 -3 41 -31 98 -62 57 -32 128 -77 158
-100 123 -95 237 -241 309 -397 58 -125 58 -142 1 -53 -66 101 -177 211 -255
252 -62 32 -194 77 -203 68 -3 -2 1 -7 9 -9 182 -64 239 -97 312 -176 82 -90
197 -285 197 -336 0 -15 23 -17 92 -8 l45 6 17 82 c24 112 78 270 122 358 83
164 179 276 351 405 62 46 113 87 113 89 0 7 -14 -2 -105 -65 -113 -78 -247
-211 -311 -307 -63 -95 -136 -247 -160 -333 -10 -34 -19 -59 -22 -57 -8 8 29
221 54 310 43 152 105 252 218 348 75 64 102 98 45 57 -65 -46 -151 -134 -193
-197 -57 -88 -93 -181 -121 -316 -45 -214 -45 -213 -40 -56 5 160 22 254 59
335 29 63 91 134 152 172 24 16 44 32 44 36 0 24 -137 -83 -174 -136 -20 -28
-36 -49 -36 -46 0 3 11 37 24 75 51 150 132 282 273 447 51 59 89 107 84 107
-6 0 -49 -45 -98 -101z"/>
<path d="M5998 10754 c-52 -28 -71 -101 -48 -184 5 -20 32 -62 59 -94 48 -57
87 -123 78 -132 -2 -2 -30 5 -62 16 -102 35 -178 23 -224 -36 -33 -42 -30
-132 6 -175 36 -43 79 -59 156 -59 59 0 69 -3 130 -44 36 -24 70 -45 77 -48 9
-3 8 -19 -3 -63 -9 -33 -18 -79 -22 -102 l-7 -43 50 0 51 0 5 -52 c6 -57 14
-189 15 -251 1 -21 5 -36 9 -33 5 3 12 58 16 122 3 65 12 124 18 131 25 31 93
56 146 55 28 -1 52 3 52 8 0 6 23 10 50 10 43 0 50 3 50 20 0 11 -4 20 -9 20
-4 0 -11 17 -14 38 -4 20 -14 71 -23 112 -18 86 -19 104 -5 300 5 83 18 179
30 224 34 129 28 199 -22 254 -41 45 -127 20 -161 -47 -8 -15 -24 -68 -36
-119 -12 -51 -25 -92 -29 -92 -15 0 -59 57 -94 120 -38 70 -83 118 -134 144
-39 20 -70 20 -105 0z"/>
<path d="M4223 10416 c-174 -33 -314 -100 -413 -196 -53 -51 -111 -140 -92
-140 4 0 25 9 47 20 22 11 49 20 60 20 24 0 62 25 88 57 23 28 69 52 162 84
62 21 87 24 223 24 170 -1 180 11 19 25 l-102 9 107 -4 c59 -2 115 -8 125 -13
20 -10 64 0 46 11 -25 15 -166 29 -258 25 -116 -6 -97 7 32 22 54 6 121 6 185
0 55 -5 111 -7 124 -4 12 3 30 1 40 -4 14 -8 6 -12 -40 -22 -32 -6 -56 -14
-53 -16 7 -8 156 30 151 38 -3 4 7 3 21 -2 15 -6 54 -10 89 -10 206 0 478
-116 559 -239 15 -23 32 -41 37 -41 6 0 10 -5 10 -12 0 -12 30 -47 88 -101 79
-75 108 -112 135 -175 15 -37 26 -75 23 -85 -2 -11 -2 -16 2 -12 4 3 13 -15
22 -42 10 -33 21 -49 35 -51 11 -2 26 -11 33 -20 11 -15 14 -15 22 -2 25 38 5
97 -50 151 -22 22 -50 60 -61 85 -12 24 -37 58 -56 73 -20 16 -33 34 -29 39 7
12 -168 197 -238 251 -65 50 -155 101 -231 130 -33 13 -69 27 -80 32 -27 13
-73 19 -185 26 -52 3 -100 9 -105 14 -6 4 -51 20 -100 34 -111 33 -282 42
-392 21z m287 -36 c30 -8 28 -9 -16 -4 -75 8 -212 8 -274 -1 -70 -9 -62 1 11
14 59 11 223 5 279 -9z m-365 -20 c-27 -12 -43 -12 -25 0 8 5 22 9 30 9 10 0
8 -3 -5 -9z"/>
<path d="M4385 10260 c-3 -6 1 -7 9 -4 18 7 21 14 7 14 -6 0 -13 -4 -16 -10z"/>
<path d="M4292 10233 c3 -17 -9 -31 -77 -92 -103 -91 -250 -327 -248 -398 1
-21 -4 -36 -13 -40 -11 -4 -12 -8 -3 -19 7 -8 9 -17 6 -21 -4 -3 -12 6 -18 21
-11 23 -10 28 7 41 10 8 14 15 7 15 -15 0 -44 -40 -37 -52 3 -5 -6 -20 -20
-33 -14 -13 -26 -28 -26 -33 0 -5 -7 -16 -16 -23 -35 -29 -131 -188 -163 -272
-6 -15 -16 -25 -21 -22 -6 3 -10 -4 -10 -17 0 -13 -9 -29 -20 -36 -11 -7 -20
-20 -20 -30 0 -10 -5 -23 -12 -30 -9 -9 -9 -12 3 -12 12 0 12 -2 -1 -10 -9 -5
-19 -5 -26 1 -10 8 -12 0 -9 -34 1 -25 5 -49 9 -55 3 -5 -3 -12 -14 -15 -13
-3 -18 -1 -14 6 3 7 -1 4 -9 -5 -8 -10 -18 -18 -23 -18 -5 0 -19 -16 -32 -36
-12 -19 -27 -32 -32 -29 -6 3 -10 1 -10 -5 0 -6 -6 -18 -12 -25 -30 -33 -38
-45 -38 -55 0 -5 -4 -10 -9 -10 -5 0 -16 -3 -25 -6 -10 -4 -16 -1 -16 7 0 7 3
10 6 6 8 -8 44 25 44 40 0 16 -17 17 -22 1 -4 -11 -23 -18 -67 -22 -13 -2 -28
-10 -33 -19 -5 -9 -18 -17 -30 -17 -13 0 -18 -5 -15 -14 4 -10 -2 -16 -16 -18
-14 -2 -21 -10 -21 -21 1 -9 -3 -17 -8 -17 -6 0 -8 -7 -4 -15 5 -15 -26 -39
-38 -28 -3 3 -6 -3 -6 -15 0 -11 -5 -24 -11 -27 -5 -4 -8 -12 -6 -18 2 -7 -2
-18 -10 -25 -7 -7 -13 -22 -13 -32 0 -10 -9 -25 -21 -33 -13 -10 -17 -17 -9
-22 8 -5 5 -17 -9 -41 -12 -19 -22 -54 -24 -77 -1 -23 -5 -46 -8 -52 -4 -5 -9
-23 -13 -38 -5 -20 -3 -27 5 -22 8 5 7 1 -1 -15 -9 -17 -9 -24 -1 -30 7 -4 10
-25 7 -53 -3 -27 0 -49 6 -53 7 -4 8 5 4 27 -6 31 -5 32 5 9 8 -19 7 -31 -4
-50 -8 -14 -20 -42 -26 -63 -11 -33 -10 -41 8 -70 11 -17 36 -48 56 -67 20
-19 45 -51 55 -70 24 -47 59 -78 100 -90 26 -7 31 -7 22 2 -7 7 -12 23 -12 36
0 22 2 23 17 11 15 -13 16 -11 11 13 -3 15 -1 25 3 22 5 -3 9 -11 9 -18 0 -7
6 -13 13 -13 22 0 68 -35 63 -49 -3 -7 3 -16 13 -19 11 -3 21 -15 24 -26 3
-12 10 -18 17 -14 17 10 41 -15 35 -36 -4 -11 -2 -19 4 -19 6 0 11 -9 11 -19
0 -11 5 -23 11 -27 6 -3 8 -18 5 -33 -3 -14 -3 -20 0 -13 9 19 23 14 17 -7 -3
-13 2 -21 17 -26 18 -6 20 -9 9 -16 -11 -7 -10 -11 6 -23 20 -15 20 -15 -1
-16 -23 0 -38 -24 -27 -43 3 -7 -4 -3 -17 8 l-23 20 21 -40 c12 -24 18 -51 15
-66 -3 -18 7 -45 36 -92 41 -68 41 -74 -2 -58 -16 6 -4 -11 38 -53 34 -34 70
-76 80 -94 11 -18 23 -32 27 -32 4 0 8 -20 8 -44 0 -40 -3 -44 -27 -49 -25 -5
-206 32 -258 52 -29 12 -127 42 -145 45 -25 4 -94 28 -105 37 -6 4 -22 10 -35
12 -41 8 -159 58 -265 112 -184 96 -260 138 -263 146 -2 5 -8 7 -13 4 -4 -3
-14 3 -21 14 -9 16 -15 17 -26 8 -11 -8 -10 -1 3 28 95 222 107 295 52 310
-12 3 -40 11 -62 16 -22 6 -49 15 -61 19 -11 4 -28 3 -38 -2 -15 -9 -17 -6
-12 24 3 18 8 56 12 83 4 34 17 65 40 96 92 126 84 238 -20 288 -50 24 -75 26
-119 7 -67 -28 -95 -75 -123 -213 -6 -29 -37 -37 -71 -19 -31 16 -98 84 -157
159 -106 134 -286 122 -286 -20 0 -45 43 -125 89 -163 86 -73 116 -102 96 -95
-32 12 -115 23 -175 24 -144 1 -222 -108 -150 -209 31 -44 74 -63 151 -64 37
-1 73 -7 81 -12 7 -6 34 -18 60 -28 26 -9 75 -36 110 -58 35 -23 90 -50 123
-60 32 -10 66 -25 75 -33 8 -7 26 -18 40 -23 14 -6 68 -44 119 -86 52 -42 99
-76 103 -76 4 0 25 15 46 34 l38 35 134 -71 c334 -175 388 -198 667 -293 153
-52 283 -95 289 -95 7 0 35 16 64 35 29 19 57 35 64 35 6 0 50 15 96 34 93 38
248 85 295 90 17 2 80 10 140 19 61 9 145 19 188 22 76 7 97 17 57 30 -11 3
-20 11 -20 16 0 5 -7 9 -15 9 -8 0 -15 5 -15 11 0 5 -4 7 -10 4 -5 -3 -10 -1
-10 5 0 6 -4 9 -9 6 -5 -3 -20 5 -32 19 -13 13 -31 25 -41 25 -9 0 -18 3 -20
8 -1 4 -19 15 -38 26 -115 62 -147 81 -164 98 -10 11 -25 17 -33 14 -8 -3 -11
-1 -8 4 3 6 -1 10 -9 10 -9 0 -13 6 -10 14 3 9 -5 15 -25 19 -17 4 -32 14 -36
27 -3 11 -15 25 -26 30 -10 6 -19 19 -19 29 0 20 -23 44 -33 34 -4 -3 -13 0
-21 7 -14 11 -14 14 -1 27 20 20 10 33 -26 33 -24 0 -29 4 -29 24 0 35 -20 86
-33 83 -6 -1 -16 16 -21 38 -6 22 -14 43 -20 46 -5 4 -6 14 -3 23 4 9 2 16 -3
16 -6 0 -10 5 -10 11 0 6 -9 18 -20 27 -17 14 -21 30 -22 85 0 37 -4 67 -9 67
-4 0 -10 -28 -13 -62 -3 -35 -8 -79 -9 -98 -2 -19 -3 26 -3 100 1 74 2 118 4
98 2 -27 7 -35 18 -31 17 6 19 30 2 36 -10 4 -9 8 2 16 13 10 13 11 0 11 -13
0 -13 1 0 10 13 9 13 10 0 11 -8 1 -19 1 -25 0 -5 -1 4 11 20 27 41 41 55 59
55 72 0 16 42 49 63 50 10 0 17 8 17 20 0 25 18 26 35 3 12 -16 12 -14 8 10
-4 20 -1 27 11 27 9 0 25 9 36 20 35 35 150 21 150 -19 0 -6 3 -10 8 -10 4 1
14 1 22 0 12 -1 13 -3 1 -10 -19 -12 -5 -30 19 -24 16 4 19 2 14 -11 -4 -11 0
-16 14 -16 11 0 23 7 26 16 3 8 11 12 17 9 6 -4 8 -13 5 -20 -5 -14 33 -55 52
-55 7 0 12 -11 12 -25 0 -22 2 -24 24 -14 21 10 28 7 55 -22 17 -19 31 -37 31
-41 0 -5 5 -8 11 -8 5 0 7 5 4 10 -3 6 -2 10 4 10 5 0 11 -5 13 -12 3 -7 11
-9 24 -4 10 4 52 8 91 9 44 1 71 6 69 12 -2 6 -9 9 -15 7 -7 -1 -10 2 -6 8 3
5 26 10 49 10 27 0 48 6 56 15 8 9 30 15 57 15 25 0 42 4 38 9 -6 10 6 15 65
27 19 3 50 15 68 24 51 28 212 173 212 192 0 4 6 8 13 8 11 0 47 45 36 45 -9
1 148 131 174 144 15 8 27 22 27 31 0 10 19 35 43 57 67 61 130 140 122 153
-9 14 14 42 29 33 6 -3 8 -3 4 1 -3 4 9 32 28 61 37 59 74 145 74 175 0 10 5
22 12 26 6 4 8 3 4 -4 -3 -6 -2 -13 4 -17 13 -8 29 35 22 55 -3 8 -12 21 -19
29 -9 8 -12 24 -9 40 3 14 2 33 -4 41 -7 11 -10 7 -10 -20 -1 -54 -33 -168
-71 -245 -47 -96 -186 -237 -284 -287 -110 -57 -196 -79 -322 -85 -94 -5 -126
-2 -205 17 -51 12 -113 31 -138 42 -110 49 -150 70 -150 79 0 5 -7 9 -15 9 -8
0 -15 5 -15 11 0 5 -3 8 -8 5 -4 -2 -34 16 -66 40 -33 24 -55 44 -50 44 5 0
-2 6 -16 13 -14 8 -24 19 -23 25 2 7 -6 12 -17 12 -10 0 -24 9 -30 20 -6 11
-16 20 -22 20 -14 0 -128 121 -128 137 0 7 -4 13 -8 13 -9 0 -58 95 -82 159
-8 18 -27 48 -43 65 l-29 31 5 -80 c5 -84 -7 -76 -19 13 -6 47 20 168 47 215
5 10 21 61 34 113 13 52 38 123 56 159 37 75 128 187 214 265 50 44 59 57 49
67 -18 18 -26 16 -22 -4z m-395 -815 c-3 -8 -6 -5 -6 6 -1 11 2 17 5 13 3 -3
4 -12 1 -19z m1783 -148 c0 -5 -2 -10 -4 -10 -3 0 -8 5 -11 10 -3 6 -1 10 4
10 6 0 11 -4 11 -10z m-1571 -152 c60 -89 178 -204 282 -274 72 -48 145 -104
135 -104 -19 0 -238 129 -269 159 -62 59 -207 267 -207 297 0 11 2 7 59 -78z
m-9 -57 c0 -6 -4 -13 -10 -16 -5 -3 -10 1 -10 9 0 9 5 16 10 16 6 0 10 -4 10
-9z m-265 -31 c-3 -6 -21 -17 -38 -26 l-32 -15 28 25 c28 26 54 35 42 16z
m282 -17 c3 -7 -3 -9 -17 -6 -29 8 -37 25 -9 21 12 -1 24 -8 26 -15z m-283
-99 c21 -31 36 -58 33 -60 -4 -4 -77 101 -77 111 0 12 10 1 44 -51z m1676 20
c0 -14 -138 -142 -170 -158 -28 -13 -31 -14 -15 -1 95 73 128 102 150 131 25
33 35 41 35 28z m-1379 -31 c13 -16 12 -17 -3 -4 -10 7 -18 15 -18 17 0 8 8 3
21 -13z m-401 4 c0 -2 -10 -12 -22 -23 l-23 -19 19 23 c18 21 26 27 26 19z
m520 -127 l35 -33 -40 31 c-22 16 -53 45 -70 64 l-30 33 35 -31 c19 -17 51
-46 70 -64z m-339 50 c6 0 7 -4 4 -10 -10 -15 -32 -12 -39 6 -5 12 -2 15 10
10 8 -3 20 -6 25 -6z m44 -20 c-3 -5 -11 -10 -16 -10 -6 0 -7 5 -4 10 3 6 11
10 16 10 6 0 7 -4 4 -10z m-15 -54 c0 -8 7 -17 16 -20 8 -3 12 -11 8 -17 -5
-8 -13 -4 -25 12 -21 27 -24 39 -9 39 6 0 10 -6 10 -14z m371 -23 c13 -16 12
-17 -3 -4 -10 7 -18 15 -18 17 0 8 8 3 21 -13z m317 -20 c31 -9 95 -25 142
-35 l85 -17 -65 4 c-77 6 -211 41 -237 62 -17 14 -17 14 0 9 10 -3 43 -13 75
-23z m-598 -74 c16 -14 17 -19 6 -28 -11 -9 -19 -2 -40 33 -31 53 -34 71 -5
36 11 -14 29 -32 39 -41z m1200 56 c0 -5 -55 -35 -65 -35 -3 0 -5 4 -5 9 0 4
15 13 33 19 17 5 33 10 35 11 1 1 2 -1 2 -4z m-563 -81 c-2 -2 -12 -1 -24 2
-14 4 -20 11 -16 20 5 13 8 12 24 -2 11 -10 18 -19 16 -20z m417 26 c-5 -5
-59 -12 -119 -14 l-110 -5 90 9 c50 6 97 12 105 14 30 8 44 6 34 -4z m-1345
-807 c0 -34 -1 -36 -11 -16 -6 12 -8 29 -5 37 11 27 17 18 16 -21z"/>
<path d="M4345 10240 c-3 -6 1 -7 9 -4 18 7 21 14 7 14 -6 0 -13 -4 -16 -10z"/>
<path d="M3925 10170 c-3 -6 1 -7 9 -4 18 7 21 14 7 14 -6 0 -13 -4 -16 -10z"/>
<path d="M4670 10155 c-117 -28 -175 -54 -265 -123 -93 -70 -195 -209 -195
-266 0 -20 0 -20 16 2 21 30 64 73 64 64 0 -4 4 -2 8 4 11 18 97 63 150 80 26
8 95 18 153 21 206 11 358 -48 509 -196 71 -70 95 -101 129 -171 50 -104 71
-180 78 -285 5 -75 -1 -114 -40 -250 -2 -5 -9 -21 -16 -33 -20 -37 -6 -37 39
-1 42 34 120 130 145 179 60 117 76 317 35 445 -47 147 -113 261 -195 336 -56
50 -84 71 -120 90 -22 11 -47 24 -55 29 -8 5 -33 16 -55 26 -22 9 -49 20 -60
25 -85 38 -224 48 -325 24z"/>
<path d="M5097 10119 c7 -7 15 -10 18 -7 3 3 -2 9 -12 12 -14 6 -15 5 -6 -5z"/>
<path d="M5150 10097 c0 -2 31 -27 69 -56 38 -28 93 -77 121 -109 29 -31 43
-43 31 -25 -37 55 -221 214 -221 190z"/>
<path d="M3560 10051 c-162 -38 -377 -166 -503 -301 -61 -65 -86 -102 -131
-193 -94 -193 -136 -350 -136 -508 0 -99 17 -58 23 58 4 59 13 131 21 158 l15
50 -6 -95 c-3 -60 1 -135 10 -204 15 -101 27 -146 27 -98 0 11 4 22 9 24 6 2
5 25 -1 58 -14 77 -3 183 29 281 l28 84 6 -135 c8 -161 6 -150 19 -150 7 0 9
25 4 75 -5 53 -3 75 5 75 6 0 11 5 11 11 0 27 72 159 82 153 7 -4 8 -3 4 4 -4
7 -2 20 3 29 8 14 10 0 11 -54 0 -111 16 -95 23 23 6 84 11 112 28 135 20 29
37 33 52 14 5 -6 7 -4 4 5 -2 8 -10 14 -16 12 -6 -1 -11 2 -11 7 0 14 26 32
35 23 5 -4 5 -1 1 6 -5 8 -1 21 10 33 9 10 12 19 6 19 -6 0 -30 -24 -53 -52
-34 -43 -41 -48 -35 -26 18 74 42 101 133 148 24 12 52 34 62 48 20 27 20 27
2 -33 -26 -85 -34 -135 -22 -135 9 0 16 19 37 105 17 68 48 136 60 131 7 -3
23 4 36 15 l23 20 -30 -17 -30 -18 29 32 c22 23 36 31 50 26 15 -4 17 -3 7 4
-10 7 -1 19 40 50 29 22 58 38 66 35 7 -3 10 -10 7 -15 -4 -6 5 -2 20 7 15 10
24 20 22 23 -3 3 -12 -1 -20 -7 -8 -7 -17 -8 -20 -3 -6 10 16 22 40 22 20 0
86 45 77 53 -11 12 -85 6 -163 -12z m-214 -236 c-11 -8 -25 -15 -31 -15 -7 0
-37 -18 -69 -40 -35 -25 -53 -33 -47 -22 15 28 35 42 98 68 67 27 75 29 49 9z
m-296 -122 c-30 -32 -56 -60 -59 -63 -2 -3 0 2 4 10 16 28 99 120 103 115 3
-3 -19 -31 -48 -62z m111 20 c-10 -21 -31 -49 -46 -63 -16 -14 -48 -52 -73
-85 -27 -36 -42 -50 -37 -35 10 33 53 121 68 141 11 15 96 79 104 79 2 0 -5
-17 -16 -37z m-51 -157 c-6 -26 -28 -78 -50 -116 -21 -39 -49 -97 -62 -130
-13 -33 -25 -60 -28 -60 -3 0 -2 41 1 90 5 75 11 97 34 133 36 54 106 139 112
134 2 -3 -1 -25 -7 -51z m-135 -58 c-30 -93 -74 -198 -75 -176 0 32 82 248 94
248 2 0 -7 -33 -19 -72z m-60 -61 c-32 -101 -48 -115 -20 -20 15 52 41 113 48
113 2 0 -11 -42 -28 -93z m-38 -139 c-3 -7 -5 -2 -5 12 0 14 2 19 5 13 2 -7 2
-19 0 -25z m-10 -75 c-3 -10 -5 -4 -5 12 0 17 2 24 5 18 2 -7 2 -21 0 -30z"/>
<path d="M3560 9955 c-13 -14 -19 -25 -14 -25 8 1 50 50 41 50 -2 0 -14 -11
-27 -25z"/>
<path d="M3275 9711 c-3 -6 4 -9 15 -8 11 1 20 5 20 9 0 11 -28 10 -35 -1z"/>
<path d="M3249 9673 c-13 -16 -12 -17 4 -4 9 7 17 15 17 17 0 8 -8 3 -21 -13z"/>
<path d="M5653 9566 c0 -14 3 -26 8 -26 11 0 11 21 0 39 -6 9 -8 5 -8 -13z"/>
<path d="M5658 9465 c-1 -36 0 -65 5 -65 4 0 7 29 7 65 0 36 -2 65 -4 65 -2 0
-6 -29 -8 -65z"/>
<path d="M3139 9503 c-12 -16 -12 -17 2 -6 9 7 20 9 24 5 5 -4 5 -1 1 6 -9 16
-11 15 -27 -5z"/>
<path d="M4910 9505 c-138 -62 -181 -245 -83 -357 14 -16 18 -15 57 16 60 48
190 134 247 162 27 14 49 30 49 37 0 7 -10 30 -23 52 -46 81 -168 125 -247 90z
m25 -136 c6 -19 -7 -39 -25 -39 -3 0 -11 4 -19 9 -19 12 -4 51 19 51 10 0 22
-10 25 -21z"/>
<path d="M7035 9216 c-111 -81 -257 -249 -309 -356 l-17 -35 20 25 c11 14 21
31 21 38 0 6 3 12 8 12 4 0 22 25 40 55 18 30 39 55 46 55 8 0 16 9 19 21 3
12 10 18 17 14 6 -3 9 -2 8 4 -4 13 109 129 161 165 37 26 58 46 49 46 -2 0
-31 -20 -63 -44z"/>
<path d="M9135 9138 c-137 -25 -166 -32 -172 -40 -3 -6 2 -8 13 -4 92 27 174
32 270 16 71 -13 101 -23 179 -62 81 -40 94 -48 145 -86 38 -28 35 -25 -15 23
-67 64 -205 136 -293 154 -59 12 -57 12 -127 -1z"/>
<path d="M8091 9124 c58 -7 127 -23 153 -34 26 -11 52 -20 57 -20 12 0 157
-86 175 -105 9 -8 19 -15 23 -15 11 0 111 -99 111 -110 0 -6 8 -10 18 -9 10 0
12 3 5 6 -22 8 -14 31 23 73 44 49 36 52 -18 6 -45 -39 -34 -43 -133 45 -92
81 -185 138 -271 164 -23 7 -89 13 -146 13 l-103 0 106 -14z"/>
<path d="M6251 9114 c0 -11 3 -14 6 -6 3 7 2 16 -1 19 -3 4 -6 -2 -5 -13z"/>
<path d="M7948 9123 c6 -2 18 -2 25 0 6 3 1 5 -13 5 -14 0 -19 -2 -12 -5z"/>
<path d="M6230 8964 l-12 -105 -22 20 c-20 19 -56 29 -56 16 0 -3 14 -33 30
-65 47 -94 88 -288 135 -645 24 -180 33 -336 18 -322 -3 4 -11 0 -17 -8 -8
-11 -35 -17 -85 -20 -41 -3 -82 -12 -94 -20 -12 -8 -29 -15 -38 -15 -27 0
-172 -51 -187 -66 -7 -8 -19 -14 -26 -14 -7 0 -48 -34 -91 -75 -42 -41 -79
-75 -81 -75 -2 0 -17 -14 -32 -31 -15 -17 -37 -42 -49 -56 -26 -27 -31 -42 -8
-23 8 7 15 8 15 3 0 -13 -213 -118 -400 -198 -85 -36 -178 -77 -206 -90 -28
-14 -57 -25 -64 -25 -32 0 7 -15 107 -41 60 -15 166 -48 237 -72 l128 -44 57
28 c98 51 209 72 336 66 123 -6 199 -24 110 -27 l-50 -2 56 -12 c269 -59 493
-266 587 -541 39 -116 46 -301 16 -417 -32 -126 -125 -285 -201 -346 -15 -12
-42 -33 -60 -47 -48 -39 -166 -94 -235 -110 -141 -33 -319 -10 -458 60 -81 41
-185 118 -260 192 -87 87 -75 89 -203 -40 -120 -122 -176 -164 -265 -201 -104
-42 -152 -51 -282 -51 -103 1 -137 5 -194 24 -73 23 -189 79 -194 93 -2 4 -9
8 -15 8 -20 0 -160 127 -207 186 -51 65 -70 95 -70 108 0 9 -4 16 -9 16 -5 0
-15 16 -22 34 -7 19 -16 33 -21 30 -4 -3 -5 9 -1 26 4 24 2 31 -8 28 -8 -1
-24 7 -37 20 -12 12 -26 20 -31 18 -4 -3 -6 5 -4 17 2 12 -2 62 -10 111 -11
78 -15 87 -28 75 -27 -25 -58 -39 -64 -29 -8 12 11 113 25 140 6 11 15 20 20
20 22 0 71 70 96 138 28 77 100 195 154 250 17 17 27 32 21 32 -5 0 -13 -5
-17 -11 -3 -6 -32 -27 -63 -46 -98 -63 -199 -170 -310 -330 -13 -19 -16 -20
-52 -5 -42 16 -94 11 -125 -14 -18 -15 -18 -15 6 -8 38 11 103 10 106 -1 6
-18 -12 -36 -29 -29 -9 3 -14 10 -11 15 3 5 -2 9 -10 9 -13 0 -14 -4 -5 -18 8
-12 8 -36 2 -79 -7 -47 -7 -63 2 -67 16 -6 7 -56 -12 -63 -8 -3 -19 -1 -26 6
-8 8 -6 11 7 11 10 0 16 5 13 13 -2 6 -10 11 -16 10 -6 -2 -11 2 -11 7 0 6 4
10 9 10 5 0 8 29 8 65 -2 61 -9 80 -20 53 -3 -7 -6 -3 -6 10 -1 12 4 22 11 22
6 0 9 2 7 5 -3 2 -15 2 -27 -2 -19 -4 -22 -11 -19 -37 5 -48 -28 -73 -239
-181 -209 -108 -285 -154 -307 -189 -16 -24 -40 -133 -32 -146 2 -4 -4 -32
-15 -63 -22 -63 -25 -99 -10 -128 13 -24 30 -25 30 -1 0 43 88 92 155 86 22
-1 48 -3 58 -3 10 -1 16 -5 13 -9 -3 -5 7 -9 22 -10 44 -2 64 -8 76 -24 6 -8
22 -20 34 -27 13 -7 21 -15 18 -18 -3 -4 -1 -12 4 -18 13 -15 3 -45 -15 -45
-15 0 -25 -47 -24 -109 1 -25 3 -35 6 -21 11 77 15 90 23 90 6 0 10 -36 10
-81 0 -68 2 -80 15 -75 12 4 15 -4 16 -42 2 -99 1 -97 36 -100 20 -2 34 -10
38 -21 7 -22 52 -45 60 -31 4 6 0 10 -8 10 -10 0 -13 7 -10 18 6 23 53 18 53
-5 0 -11 8 -14 29 -11 22 3 31 0 34 -14 4 -13 0 -18 -15 -18 -11 0 -16 -4 -13
-11 4 -6 9 -8 12 -6 2 3 19 -1 37 -8 l32 -14 -4 30 c-3 19 2 37 13 49 26 29
47 3 44 -55 -3 -49 -1 -54 30 -60 16 -3 21 1 21 16 0 19 1 18 20 -1 12 -12 25
-18 30 -15 6 4 10 -3 10 -14 0 -14 8 -21 28 -24 20 -3 18 -4 -8 -3 -34 1 -37
-4 -20 -34 7 -12 12 -12 37 0 15 8 31 15 35 17 3 2 4 -6 1 -17 -4 -13 0 -20
10 -20 17 0 40 24 30 33 -3 4 -1 7 5 7 7 0 12 -5 12 -11 0 -6 8 -9 18 -7 9 2
17 10 17 18 0 17 35 15 48 -3 5 -7 6 -3 2 9 -4 17 0 23 19 26 33 7 43 -1 49
-37 l4 -30 2 33 c0 17 6 32 11 32 6 0 10 -4 10 -10 0 -5 6 -10 14 -10 8 0 16
-5 18 -12 3 -7 10 -8 17 -4 9 6 7 11 -11 20 -27 14 -40 53 -13 42 9 -3 23 -6
31 -6 8 0 14 -6 14 -14 0 -17 60 -33 69 -18 3 6 27 12 51 14 26 2 44 8 43 14
-1 7 14 10 40 9 50 -3 77 3 77 16 0 5 -9 9 -20 9 -11 0 -20 5 -20 10 0 12 11
12 70 0 37 -7 51 -5 78 10 17 11 39 17 47 14 8 -4 15 -2 15 4 0 5 39 29 87 52
48 24 98 53 112 66 78 70 106 98 104 105 -2 5 1 9 6 9 4 0 25 14 46 30 27 21
49 30 76 30 20 0 39 -3 41 -8 8 -20 161 -112 258 -156 40 -17 187 -59 210 -59
8 0 21 -4 28 -10 8 -6 16 -6 25 2 10 8 18 7 31 -2 11 -8 45 -12 92 -11 41 1
74 -2 74 -6 0 -29 114 -6 151 31 10 10 23 19 28 19 5 0 12 8 15 18 4 10 24 37
46 60 22 22 48 55 58 73 14 25 32 37 93 58 81 29 109 30 88 4 -9 -10 -13 -81
-13 -261 0 -313 7 -523 16 -508 15 23 7 -5 -18 -63 -15 -34 -31 -61 -35 -61
-5 0 -9 -6 -9 -13 0 -7 -9 -23 -20 -35 -11 -12 -20 -26 -20 -32 0 -5 -4 -10
-8 -10 -4 0 -15 -12 -24 -27 -9 -16 -28 -40 -41 -54 -29 -30 -69 -34 -407 -45
-107 -3 -201 -7 -207 -9 -7 -3 -10 -11 -7 -20 3 -8 3 -15 0 -15 -4 0 -11 10
-16 23 l-9 22 0 -23 c-1 -13 -5 -20 -11 -17 -6 4 -8 11 -5 16 9 14 -5 11 -20
-5 -8 -7 -11 -16 -8 -20 4 -3 -1 -6 -10 -6 -15 0 -22 11 -18 33 0 4 -6 7 -14
7 -8 0 -12 -6 -10 -12 4 -9 -6 -14 -27 -15 -30 -2 -52 -19 -43 -33 2 -4 -2 -7
-10 -7 -8 0 -13 3 -10 5 9 10 -27 41 -41 35 -8 -3 -21 0 -28 6 -11 10 -16 8
-21 -8 -3 -12 -14 -21 -23 -20 -10 0 -12 3 -5 6 10 3 9 9 -3 20 -23 23 -349
10 -377 -15 -15 -13 -18 -14 -15 -2 3 13 -19 15 -147 12 -82 -2 -158 -6 -168
-8 -10 -3 -88 -6 -173 -7 -85 0 -154 -4 -154 -8 0 -4 29 -27 65 -50 36 -23 65
-44 65 -46 0 -5 -60 28 -82 46 -10 7 -24 11 -33 8 -8 -4 -14 -3 -13 1 3 15
-15 42 -27 42 -8 0 -17 5 -21 12 -5 8 -2 9 12 4 15 -6 14 -3 -6 18 -13 15 -29
25 -36 24 -7 -2 -21 8 -33 21 -18 21 -23 22 -38 10 -16 -13 -17 -12 -5 3 10
12 10 18 1 23 -6 4 -16 1 -21 -6 -6 -10 -7 -7 -3 10 5 15 3 21 -3 17 -5 -3
-12 1 -16 9 -3 8 -14 15 -25 15 -11 0 -23 5 -27 12 -5 8 -2 9 9 5 10 -3 17 -2
17 2 0 12 -30 22 -42 14 -6 -3 -8 -2 -5 4 3 5 -6 19 -21 31 -78 63 -91 72
-101 72 -6 0 -11 4 -11 9 0 5 -13 14 -30 21 -16 7 -30 16 -30 21 0 4 -9 11
-20 14 -11 3 -26 12 -33 18 -14 13 -51 35 -114 69 -24 12 -43 28 -43 35 0 7
-9 13 -20 13 -11 0 -20 5 -20 10 0 6 8 10 18 10 34 1 -13 19 -56 22 -25 2 -42
8 -42 16 0 6 -12 12 -27 13 -16 0 -43 1 -61 2 -17 1 -32 -1 -32 -5 0 -5 -20
-8 -44 -8 -23 0 -56 -4 -72 -9 -16 -5 -51 -13 -79 -16 -38 -5 -57 -14 -80 -39
-29 -31 -32 -41 -47 -170 -18 -149 -16 -165 29 -185 21 -10 23 -8 23 19 0 39
33 60 102 65 70 6 126 -10 158 -45 16 -18 41 -30 69 -35 23 -4 55 -13 69 -21
15 -8 33 -14 40 -14 7 0 10 -4 7 -10 -5 -9 15 -15 37 -11 4 0 5 -5 2 -13 -3
-8 8 -20 30 -30 20 -9 36 -21 36 -26 0 -5 20 -12 45 -16 28 -4 45 -11 45 -20
0 -13 12 -18 33 -15 4 1 17 -15 28 -34 23 -39 36 -47 19 -13 -11 22 -10 22 13
-2 23 -25 35 -31 72 -35 13 -1 19 -8 17 -19 -2 -9 2 -16 8 -16 5 0 10 -7 10
-16 0 -13 3 -14 15 -4 8 6 20 8 26 4 9 -5 8 -10 -5 -19 -14 -11 -13 -13 15
-19 17 -3 28 -10 24 -16 -3 -5 3 -10 14 -10 12 0 21 -5 21 -10 0 -6 12 -24 28
-39 56 -60 56 -59 54 -159 -1 -52 -4 -152 -8 -221 -4 -69 -7 -134 -7 -143 -1
-10 -5 -18 -9 -18 -4 0 -8 -11 -8 -24 0 -15 -11 -33 -27 -46 -26 -21 -35 -22
-128 -16 -55 3 -133 13 -174 21 -41 9 -80 14 -88 11 -7 -3 -13 -1 -13 4 0 5
-16 12 -35 16 -19 3 -35 10 -35 14 0 5 -9 12 -20 15 -11 4 -17 11 -14 17 4 6
1 13 -5 17 -14 9 -35 121 -57 296 -14 108 -29 -19 -38 -320 -3 -66 -9 -141
-15 -166 -6 -27 -8 -73 -3 -110 4 -35 6 -126 4 -202 -4 -137 -4 -138 -28 -148
-28 -10 -183 -13 -208 -3 -9 3 -16 15 -16 25 0 21 -12 20 -87 -3 -35 -10 -41
-28 -24 -70 5 -13 15 -62 22 -110 11 -82 11 -89 -11 -143 -17 -42 -23 -75 -22
-138 l0 -82 -12 45 c-7 25 -14 39 -17 33 -2 -7 -20 -15 -39 -18 -19 -2 -53
-10 -75 -16 -22 -6 -53 -12 -69 -14 -16 -2 -31 -7 -35 -12 -3 -4 -10 -8 -16
-8 -72 -3 -196 -56 -264 -114 -35 -30 -39 -37 -34 -70 2 -20 10 -47 16 -61 13
-28 53 -70 68 -70 5 0 9 -7 9 -15 0 -8 7 -15 15 -15 9 0 18 -7 21 -15 4 -8 13
-15 21 -15 15 0 105 -47 113 -60 13 -18 222 -50 505 -76 372 -33 1057 -21
1494 27 299 33 448 35 621 10 191 -27 390 -48 575 -61 83 -5 238 -16 346 -24
532 -41 756 -42 934 -6 28 6 176 14 330 20 303 9 405 19 620 55 142 24 432 52
605 58 52 2 176 -3 275 -10 206 -17 338 -12 386 12 22 12 28 19 19 25 -7 5
-12 31 -12 71 0 88 -12 121 -62 167 -54 50 -81 64 -193 101 -102 35 -132 63
-89 82 31 15 33 19 41 139 8 116 35 191 78 224 18 13 75 43 127 67 150 67 229
118 316 205 66 65 89 96 123 166 41 87 49 118 31 118 -12 0 -80 70 -80 83 0 6
9 -1 21 -14 16 -18 22 -20 28 -10 7 11 11 10 19 -4 6 -11 16 -16 26 -12 9 4
16 2 16 -3 0 -16 -21 -22 -36 -9 -8 6 -17 9 -21 6 -3 -4 6 -12 20 -18 21 -9
30 -9 42 1 9 8 12 17 6 24 -5 6 -11 50 -13 98 -2 47 -9 93 -16 100 -6 8 -9 25
-6 39 5 19 3 21 -5 9 -8 -12 -11 -8 -12 20 -1 19 -3 42 -4 50 -1 8 -3 26 -4
40 -2 23 -3 24 -11 5 -5 -11 -9 -15 -9 -9 -1 6 -15 14 -32 18 l-31 6 23 25
c13 13 27 25 31 25 17 0 50 -72 45 -99 -3 -15 -1 -33 4 -41 15 -24 38 14 32
53 -5 36 -42 97 -59 97 -5 0 -20 14 -32 30 -23 30 -48 41 -39 17 3 -8 2 -20
-3 -26 -5 -9 -12 -3 -24 19 -19 40 -20 54 -3 47 12 -5 15 36 8 153 -2 29 -4
32 -11 15 -8 -18 -9 -17 -9 7 -1 14 -4 34 -8 44 -5 13 -3 16 9 12 13 -5 14 5
10 70 -3 43 -10 80 -16 84 -8 5 -8 12 0 25 6 10 10 65 9 128 -1 66 3 126 11
150 28 88 36 132 45 258 6 73 14 178 18 235 5 56 11 105 15 109 3 3 6 -2 6
-12 0 -15 2 -15 16 -4 17 14 91 14 130 -1 18 -7 24 -6 24 4 0 8 14 17 33 21
85 16 127 28 127 35 0 4 12 5 26 2 18 -3 25 -1 20 6 -3 6 4 18 16 26 17 12 24
13 30 3 5 -9 10 -8 20 5 14 18 77 38 121 38 16 0 26 4 23 8 -2 4 23 19 57 32
34 14 71 33 81 42 11 10 25 18 32 18 6 0 23 9 37 20 14 11 31 20 37 20 7 0 33
15 59 33 25 18 75 50 111 72 36 21 69 45 73 52 4 7 16 13 25 13 14 0 15 2 3 9
-21 14 7 19 174 31 279 21 316 37 350 155 9 28 19 55 23 61 4 6 33 14 65 17
113 11 253 99 278 174 9 29 8 51 -6 120 -16 74 -16 95 -5 193 16 135 5 174
-69 243 -54 50 -113 72 -173 64 l-37 -5 5 47 c14 135 74 972 74 1030 0 87 -22
128 -86 161 l-48 25 -372 3 c-243 2 -385 0 -411 -7 -61 -17 -106 -51 -131
-102 -21 -42 -26 -81 -48 -385 -13 -187 -45 -616 -70 -954 -25 -338 -44 -650
-42 -692 4 -100 29 -137 113 -163 16 -5 6 -14 -50 -42 -38 -20 -94 -44 -123
-54 -76 -26 -265 -67 -347 -75 l-70 -7 21 24 c61 68 72 172 25 237 l-23 32 34
14 c18 8 49 17 68 21 92 20 206 97 240 165 39 77 19 158 -52 205 -36 24 -48
27 -103 23 -53 -3 -83 -14 -186 -66 -91 -45 -149 -67 -219 -82 -177 -39 -215
-51 -325 -106 l-110 -54 -109 -1 c-105 -2 -109 -3 -142 -31 -49 -43 -66 -108
-54 -205 17 -132 52 -223 103 -272 22 -20 32 -22 63 -16 21 4 51 17 66 30 15
13 57 37 93 54 36 17 65 35 65 40 0 5 11 16 25 25 19 13 29 14 48 5 17 -8 39
-8 69 -2 43 9 46 9 64 -18 10 -15 29 -33 41 -40 25 -13 22 -32 -4 -22 -13 5
-15 2 -10 -11 6 -14 4 -17 -10 -12 -10 4 -14 4 -11 1 4 -4 2 -19 -4 -34 -11
-25 -21 -191 -18 -276 1 -5 -1 -26 -4 -45 -3 -19 -5 -55 -5 -79 -1 -40 -6 -49
-56 -96 l-55 -52 -107 -12 c-93 -9 -251 -16 -803 -35 -58 -2 -165 0 -239 3
-133 6 -134 6 -138 31 -2 13 -8 29 -13 34 -10 10 -2 65 13 84 6 8 6 12 0 12
-6 0 -8 11 -5 25 3 19 8 23 17 15 14 -12 26 -3 19 14 -3 7 2 19 10 26 9 7 13
17 9 23 -3 5 -2 7 3 4 14 -8 30 5 38 30 7 22 5 23 -41 18 -73 -7 -163 -27
-163 -37 0 -5 -5 -6 -10 -3 -6 3 -18 -1 -27 -10 -13 -13 -17 -14 -24 -3 -7 10
-11 10 -21 -3 -7 -9 -28 -21 -47 -28 -28 -9 -31 -8 -22 3 9 11 4 11 -29 3 -22
-6 -40 -15 -40 -19 0 -4 -15 -8 -33 -8 -18 0 -41 -6 -52 -13 -11 -8 -41 -20
-67 -27 -26 -8 -45 -17 -43 -21 3 -3 -13 -9 -35 -13 -22 -3 -40 -10 -40 -14 0
-18 -82 -43 -142 -44 -35 0 -71 -5 -82 -10 -12 -7 -22 -6 -29 1 -6 6 -19 11
-29 11 -10 0 -18 4 -18 9 0 5 -13 14 -30 20 -19 6 -30 17 -30 29 0 11 -9 31
-21 46 -11 14 -18 26 -14 26 3 0 -1 10 -9 23 -10 14 -12 27 -6 36 4 8 5 24 1
35 -13 35 -3 147 16 179 19 32 83 77 125 87 41 11 55 9 148 -20 84 -27 113
-32 163 -27 67 5 207 44 207 57 0 4 -7 13 -15 20 -8 7 -15 19 -15 26 0 8 -5
14 -11 14 -6 0 -9 5 -7 12 5 15 -32 59 -44 52 -4 -3 -8 2 -8 10 0 9 -9 21 -20
28 -11 7 -20 17 -20 21 0 18 -42 67 -52 61 -7 -4 -8 -2 -4 4 4 7 3 12 -3 12
-6 0 -13 17 -16 38 -3 20 -10 45 -16 55 -5 10 -7 22 -4 26 3 5 -2 11 -9 14 -8
3 -15 14 -15 24 0 10 -5 36 -11 58 -6 22 -13 55 -15 74 -2 19 -7 37 -12 40
-12 9 -31 69 -37 116 -3 22 -9 63 -13 90 -4 28 -6 81 -6 120 1 44 -3 73 -10
77 -9 6 -9 10 2 17 9 6 10 11 2 15 -15 9 -14 73 0 78 9 3 9 9 1 24 -7 14 -10
79 -6 192 2 108 0 173 -6 177 -14 8 -13 105 1 105 6 0 9 16 8 38 -2 21 1 44 6
52 5 8 10 52 10 98 0 68 4 85 18 93 9 6 17 21 17 34 0 14 4 25 10 25 5 0 7 7
4 15 -4 8 -1 15 5 15 6 0 11 6 11 14 0 7 6 19 14 26 8 6 13 17 10 25 -3 7 8
29 25 48 17 19 31 39 31 43 0 13 80 44 113 44 15 0 27 5 27 10 0 6 7 10 15 10
8 0 15 -4 15 -9 0 -5 13 -11 30 -14 21 -5 31 -14 36 -33 5 -19 9 -22 15 -12 7
11 11 11 17 0 6 -9 27 -12 70 -9 47 3 62 1 62 -9 0 -8 9 -14 20 -14 11 0 20 5
20 10 0 6 15 10 33 11 56 1 160 24 165 37 2 7 14 12 26 12 13 0 38 8 57 17 52
25 149 93 149 103 0 6 9 10 21 10 12 0 17 4 14 11 -4 6 2 13 14 16 12 3 21 10
21 15 0 5 6 8 13 5 6 -2 25 5 41 16 32 23 139 28 159 8 6 -6 19 -11 29 -11 27
0 126 -48 203 -99 39 -26 90 -54 115 -62 89 -28 281 -7 324 36 8 8 19 15 23
15 5 0 22 14 38 30 25 27 26 30 9 30 -11 0 -2 8 23 20 24 10 58 31 76 45 36
29 127 64 167 65 32 0 55 15 46 28 -3 6 2 13 13 17 29 9 152 134 193 196 57
86 90 195 89 297 0 46 -2 87 -5 90 -3 3 -6 -19 -6 -49 -1 -209 -123 -409 -305
-500 -232 -115 -479 -56 -730 175 -33 31 -67 56 -76 56 -9 0 -38 -26 -65 -57
-143 -170 -283 -243 -466 -243 -242 0 -491 159 -610 392 -15 29 -28 49 -28 44
0 -5 -14 10 -31 33 -20 28 -38 73 -53 134 -13 54 -25 86 -30 79 -4 -7 -11 -10
-16 -7 -14 8 -58 -24 -65 -46 -11 -35 -27 -8 -22 37 3 33 12 50 33 66 63 50
81 75 94 129 28 123 77 228 146 308 39 45 60 97 29 71 -8 -7 -15 -20 -15 -30
0 -9 -33 -48 -72 -86 -138 -132 -190 -205 -234 -334 -15 -43 -19 -84 -19 -185
0 -100 -2 -119 -8 -82 -9 44 -10 46 -38 40 -26 -5 -29 -3 -29 20 0 17 10 34
29 48 22 16 31 32 36 68 16 111 68 234 137 322 53 68 26 48 -75 -56 -76 -77
-137 -156 -137 -176 0 -5 -5 -9 -11 -9 -6 0 -8 -7 -5 -16 5 -13 1 -15 -21 -9
-28 6 -66 35 -47 35 6 0 8 15 6 35 -3 24 -9 35 -21 35 -13 0 -13 2 -2 9 9 6
11 18 7 34 -5 20 -11 24 -27 20 -12 -4 -24 -14 -26 -25 -6 -20 -33 -25 -33 -5
-1 7 -6 4 -15 -7 -7 -10 -18 -15 -24 -11 -6 3 -11 1 -11 -4 0 -6 -12 -11 -26
-11 -19 0 -25 -4 -20 -15 3 -9 0 -15 -10 -15 -9 0 -13 5 -9 13 4 6 -3 1 -14
-13 -11 -14 -21 -32 -21 -41 0 -9 -7 -16 -15 -16 -8 0 -15 4 -15 9 0 4 -14 8
-30 8 -23 0 -30 4 -28 16 2 10 -3 19 -9 21 -7 3 -13 0 -13 -6 0 -6 -8 -11 -17
-11 -13 0 -11 -6 10 -28 39 -41 35 -52 -19 -52 -39 0 -44 -2 -35 -14 9 -11 8
-17 -2 -28 -9 -9 -13 -32 -12 -63 2 -28 0 -54 -2 -59 -9 -14 -23 17 -23 53 0
32 -1 33 -22 19 -13 -8 -29 -27 -36 -42 -19 -37 -34 -22 -28 28 5 38 5 39 -5
11 -6 -16 -13 -105 -16 -197 -3 -93 -9 -168 -12 -168 -6 0 -19 48 -52 195 -63
284 -107 439 -127 455 -4 3 -24 23 -44 45 -30 33 -38 50 -43 95 -5 47 -13 154
-14 198 -1 6 -5 12 -10 12 -4 0 -14 -48 -21 -106z m1227 -184 c-12 -21 -37
-27 -37 -11 0 15 31 42 41 36 5 -3 3 -15 -4 -25z m-1153 -125 c3 -8 1 -15 -4
-15 -6 0 -10 7 -10 15 0 8 2 15 4 15 2 0 6 -7 10 -15z m781 -65 c3 -6 -1 -7
-9 -4 -18 7 -21 14 -7 14 6 0 13 -4 16 -10z m-37 -60 c-7 -11 -16 -20 -21 -20
-4 0 -3 9 3 20 6 11 15 20 20 20 6 0 5 -9 -2 -20z m106 3 c4 -9 2 -21 -3 -26
-7 -7 -12 -5 -17 6 -9 25 -21 20 -21 -8 0 -14 4 -25 9 -25 5 0 6 -6 1 -12 -11
-19 -10 -72 2 -80 6 -5 6 -17 -2 -37 -8 -22 -8 -31 1 -35 6 -2 1 -5 -11 -5
-19 -1 -23 6 -28 47 -3 26 -10 72 -16 102 -9 51 -8 56 12 73 27 22 65 22 73 0z
m-358 -79 c-5 -13 -9 -14 -21 -4 -20 16 -19 28 3 32 20 4 26 -6 18 -28z m71
20 c-3 -3 -12 -4 -19 -1 -8 3 -5 6 6 6 11 1 17 -2 13 -5z m166 -31 c-7 -2 -42
-29 -79 -59 -37 -30 -69 -52 -73 -48 -3 4 0 9 7 11 7 3 43 29 80 58 36 30 69
51 72 48 3 -3 0 -8 -7 -10z m370 -3 c-3 -12 -14 -20 -26 -20 -19 0 -20 1 -2
20 10 11 21 20 26 20 4 0 5 -9 2 -20z m-776 -42 c-3 -8 -6 -5 -6 6 -1 11 2 17
5 13 3 -3 4 -12 1 -19z m778 -8 c3 -5 -3 -10 -14 -10 -12 0 -21 5 -21 10 0 6
6 10 14 10 8 0 18 -4 21 -10z m-818 -72 c-3 -7 -5 -2 -5 12 0 14 2 19 5 13 2
-7 2 -19 0 -25z m283 8 c0 -2 -8 -10 -17 -17 -16 -13 -17 -12 -4 4 13 16 21
21 21 13z m-75 -56 c-3 -5 -16 -15 -28 -21 -21 -10 -21 -9 2 10 25 23 36 27
26 11z m-214 -14 c12 7 11 -3 -1 -26 -7 -13 -7 -21 0 -25 15 -9 12 -25 -5 -25
-11 0 -15 12 -14 48 0 26 3 41 6 34 2 -6 9 -10 14 -6z m555 -56 c0 -39 -4 -70
-8 -70 -4 0 -8 -7 -8 -16 0 -8 -4 -13 -9 -10 -5 3 -7 19 -5 35 2 16 -3 50 -10
75 -14 46 -11 53 24 55 12 1 15 -13 16 -69z m-436 46 c0 -3 -4 -8 -10 -11 -5
-3 -10 -1 -10 4 0 6 5 11 10 11 6 0 10 -2 10 -4z m40 -10 c0 -2 -12 -11 -27
-20 l-28 -17 24 20 c23 21 31 25 31 17z m-110 -21 c0 -7 -30 -13 -34 -7 -3 4
4 9 15 9 10 1 19 0 19 -2z m870 -40 c0 -5 -5 -3 -10 5 -5 8 -10 20 -10 25 0 6
5 3 10 -5 5 -8 10 -19 10 -25z m-860 20 c0 -2 -10 -9 -22 -15 -22 -11 -22 -10
-4 4 21 17 26 19 26 11z m40 1 c0 -2 -23 -21 -51 -41 -28 -20 -48 -31 -44 -25
7 11 84 70 92 70 1 0 3 -2 3 -4z m777 -33 c-3 -3 -11 -2 -17 2 -9 6 -9 10 1
16 14 8 27 -7 16 -18z m-40 -27 c16 5 16 4 -1 -6 -20 -13 -36 0 -35 30 0 8 4
5 9 -7 6 -16 15 -21 27 -17z m-850 -28 c-3 -7 -5 -2 -5 12 0 14 2 19 5 13 2
-7 2 -19 0 -25z m763 2 c6 -11 8 -20 6 -20 -3 0 -10 9 -16 20 -6 11 -8 20 -6
20 3 0 10 -9 16 -20z m-180 -30 c0 -23 -5 -30 -19 -30 -26 0 -32 21 -13 43 22
25 32 21 32 -13z m360 6 c0 -8 -4 -17 -9 -21 -12 -7 -24 12 -16 25 9 15 25 12
25 -4z m292 -205 c139 -81 239 -105 413 -99 116 5 119 4 85 -11 -26 -12 -66
-16 -160 -15 -117 1 -130 3 -202 33 -42 18 -104 50 -136 72 -66 45 -166 137
-200 186 -13 18 14 -4 60 -50 46 -45 109 -97 140 -116z m1103 24 c39 -23 108
-57 155 -75 128 -49 129 -50 90 -43 -67 10 -165 44 -217 73 -48 28 -213 172
-222 194 -2 6 25 -16 60 -48 35 -31 96 -77 134 -101z m-1370 126 c-3 -6 -11
-8 -17 -5 -6 4 -5 9 3 15 16 10 23 4 14 -10z m-357 -8 c-10 -2 -28 -2 -40 0
-13 2 -5 4 17 4 22 1 32 -1 23 -4z m353 -180 c13 -16 12 -17 -3 -4 -10 7 -18
15 -18 17 0 8 8 3 21 -13z m251 -45 c-17 -8 -26 -8 -34 0 -9 9 -4 12 23 11 32
0 33 -1 11 -11z m-83 -64 c14 -12 -19 -1 -35 12 -18 14 -18 14 6 3 14 -6 27
-13 29 -15z m71 -24 c18 -12 2 -12 -25 0 -13 6 -15 9 -5 9 8 0 22 -4 30 -9z
m47 -16 c-3 -3 -12 -4 -19 -1 -8 3 -5 6 6 6 11 1 17 -2 13 -5z m286 -11 c-7
-2 -19 -2 -25 0 -7 3 -2 5 12 5 14 0 19 -2 13 -5z m-95 -10 c-15 -2 -42 -2
-60 0 -18 2 -6 4 27 4 33 0 48 -2 33 -4z m-621 -125 c-2 -13 -4 -5 -4 17 -1
22 1 32 4 23 2 -10 2 -28 0 -40z m-1363 -497 c4 -5 -3 -7 -14 -4 -23 6 -26 13
-6 13 8 0 17 -4 20 -9z m-2135 -248 c-6 -10 -23 -27 -37 -37 -21 -15 -20 -12
7 17 38 41 47 46 30 20z m-79 -82 c-10 -20 -30 -37 -30 -27 0 6 33 46 38 46 1
0 -2 -9 -8 -19z m-7 -65 c-10 -13 -21 -22 -24 -20 -3 2 -4 -9 -1 -24 3 -18 1
-24 -6 -17 -19 19 -18 50 3 67 31 27 50 23 28 -6z m-97 -97 c-37 -65 -67 -187
-75 -302 l-7 -102 -7 90 c-7 87 -6 93 28 188 37 104 73 182 81 174 2 -2 -7
-24 -20 -48z m14 -288 c0 -5 -7 -16 -15 -25 -13 -13 -13 -15 5 -21 11 -3 20
-13 20 -22 0 -10 -6 -13 -16 -9 -9 3 -20 6 -25 6 -13 0 -11 54 3 68 14 14 28
16 28 3z m-233 -47 c-3 -3 -12 -4 -19 -1 -8 3 -5 6 6 6 11 1 17 -2 13 -5z m-6
-74 c5 -75 4 -80 -15 -80 -13 0 -16 4 -10 13 5 6 9 19 8 27 -1 8 -2 23 -3 33
-1 11 -6 15 -13 11 -7 -4 -8 -3 -4 4 12 19 36 14 37 -8z m156 -37 c-3 -10 -5
-4 -5 12 0 17 2 24 5 18 2 -7 2 -21 0 -30z m206 -160 c91 -186 312 -362 527
-420 102 -28 303 -25 400 5 89 29 159 63 220 109 53 40 220 203 220 215 0 4 7
8 15 8 8 0 15 -4 15 -9 0 -5 6 -16 14 -23 117 -114 254 -204 373 -248 108 -39
235 -54 340 -39 95 12 240 56 269 81 11 10 24 18 30 18 5 0 20 12 33 25 13 14
28 25 33 25 17 0 -65 -76 -89 -84 -13 -4 -23 -12 -23 -17 0 -14 -112 -64 -191
-85 -94 -25 -234 -23 -334 6 -146 41 -242 98 -379 227 l-88 83 -107 -109
c-137 -141 -224 -197 -366 -238 -106 -30 -294 -27 -395 6 -202 68 -366 194
-481 371 -29 44 -56 80 -61 80 -5 0 -7 4 -4 9 4 5 -3 30 -14 56 -11 26 -20 54
-19 63 0 11 4 9 11 -8 6 -14 29 -62 51 -107z m-363 87 c0 -5 -4 -10 -10 -10
-5 0 -10 5 -10 10 0 6 5 10 10 10 6 0 10 -4 10 -10z m167 -22 c-3 -7 -5 -2 -5
12 0 14 2 19 5 13 2 -7 2 -19 0 -25z m37 -92 c89 -236 290 -413 546 -477 71
-18 103 -20 209 -16 69 3 137 8 151 12 21 6 23 5 12 -6 -17 -19 -245 -25 -336
-9 -79 14 -198 59 -266 102 -148 93 -300 273 -330 390 -6 24 -14 52 -17 63
-11 41 6 8 31 -59z m-192 9 c-2 -14 -10 -25 -18 -25 -7 0 -11 7 -9 15 3 8 7
22 10 31 8 25 23 7 17 -21z m48 -55 c-20 -13 -100 -13 -100 0 0 6 26 10 58 10
40 0 53 -3 42 -10z m300 -15 c0 -8 -5 -15 -11 -15 -5 0 -7 -4 -4 -10 3 -5 -1
-10 -9 -10 -24 0 -31 22 -11 37 24 17 35 17 35 -2z m25 -64 c-3 -6 -11 -11
-17 -11 -6 0 -6 6 2 15 14 17 26 13 15 -4z m1395 -136 c13 -14 21 -25 18 -25
-2 0 -15 11 -28 25 -13 14 -21 25 -18 25 2 0 15 -11 28 -25z m157 -105 c37
-22 63 -40 57 -40 -14 0 -171 98 -180 112 -4 7 7 2 24 -11 17 -12 62 -40 99
-61z m991 33 c27 -27 61 -56 76 -66 15 -10 62 -64 104 -119 l77 -100 1 -116
c1 -88 7 -137 24 -197 25 -89 26 -102 10 -475 -6 -129 -10 -328 -10 -443 0
-207 0 -208 -23 -216 -36 -14 -45 -31 -56 -116 -30 -228 -23 -354 28 -501 36
-107 80 -181 155 -261 78 -85 189 -156 441 -284 75 -39 108 -111 106 -233 -1
-66 7 -82 49 -91 27 -6 28 -8 18 -36 -5 -16 -14 -29 -20 -29 -6 0 -8 7 -4 15
7 18 -5 20 -22 3 -8 -8 -15 -9 -20 -3 -4 6 -72 11 -152 13 -80 2 -165 5 -190
7 -25 2 -103 6 -175 10 -71 3 -236 13 -365 21 -129 9 -250 13 -269 10 -32 -5
-29 -1 62 87 89 86 97 97 116 161 12 37 21 89 21 115 0 25 7 78 14 116 8 39
17 88 20 110 2 22 7 50 11 61 6 19 1 23 -32 31 l-38 9 -6 394 c-5 348 -15 527
-35 665 -18 129 -37 231 -43 238 -5 4 -11 -90 -14 -210 -6 -220 -27 -455 -47
-526 -15 -52 -23 -41 -11 14 5 24 12 94 16 154 4 61 8 126 10 145 1 19 8 125
14 235 8 115 17 202 23 204 6 2 5 7 -3 12 -11 7 -11 13 3 37 33 56 68 169 68
221 0 28 -11 112 -25 187 -24 128 -42 185 -65 199 -6 3 -10 52 -10 113 0 59
-5 172 -10 251 -10 159 -9 162 51 207 48 35 72 31 127 -23z m-2831 -29 c-3 -3
-12 -4 -19 -1 -8 3 -5 6 6 6 11 1 17 -2 13 -5z m594 -30 c6 -7 4 -16 -6 -24
-13 -11 -14 -10 -9 3 4 12 0 16 -22 14 -15 -1 -29 4 -31 11 -6 16 54 13 68 -4z
m-596 -14 c3 -6 -1 -7 -9 -4 -18 7 -21 14 -7 14 6 0 13 -4 16 -10z m1975 -20
c30 -11 46 -19 35 -19 -17 0 -109 37 -95 38 3 0 30 -8 60 -19z m-2215 -190 c3
-5 1 -10 -4 -10 -6 0 -11 5 -11 10 0 6 2 10 4 10 3 0 8 -4 11 -10z m850 -160
c4 -6 -7 -10 -25 -10 -18 0 -29 4 -25 10 3 6 15 10 25 10 10 0 22 -4 25 -10z
m2062 -227 c-2 -16 -4 -5 -4 22 0 28 2 40 4 28 2 -13 2 -35 0 -50z m1693 -236
c0 -4 -15 9 -32 30 -18 21 -36 40 -40 41 -5 2 -8 9 -8 15 0 13 79 -73 80 -86z
m1067 73 c1 -11 -2 -20 -8 -20 -5 0 -9 9 -9 20 0 11 4 20 8 20 4 0 8 -9 9 -20z
m153 0 c0 -5 -2 -10 -4 -10 -3 0 -8 5 -11 10 -3 6 -1 10 4 10 6 0 11 -4 11
-10z m-1930 -50 c12 -8 11 -10 -7 -10 -13 0 -23 5 -23 10 0 13 11 13 30 0z
m2130 -97 c0 -13 -3 -13 -15 -3 -8 7 -12 16 -9 21 8 13 24 1 24 -18z m-1349 0
c13 -16 12 -17 -3 -4 -10 7 -18 15 -18 17 0 8 8 3 21 -13z m-351 -13 c0 -5 -2
-10 -4 -10 -3 0 -8 5 -11 10 -3 6 -1 10 4 10 6 0 11 -4 11 -10z m390 -30 c0
-4 -7 -13 -15 -20 -13 -11 -15 -8 -15 13 0 19 4 25 15 21 8 -4 15 -10 15 -14z
m-430 -5 c0 -8 -4 -15 -10 -15 -5 0 -7 7 -4 15 4 8 8 15 10 15 2 0 4 -7 4 -15z
m1770 -6 c0 -6 -4 -7 -10 -4 -5 3 -10 11 -10 16 0 6 5 7 10 4 6 -3 10 -11 10
-16z m-1716 -52 c-3 -10 -1 -17 6 -17 7 0 9 -8 5 -21 -5 -15 -4 -19 4 -15 6 4
11 2 11 -3 0 -6 -4 -11 -10 -11 -5 0 -10 -5 -10 -11 0 -5 5 -7 10 -4 6 3 10
-3 10 -15 0 -12 -4 -18 -10 -15 -5 3 -10 1 -10 -4 0 -6 5 -11 10 -11 6 0 10
-5 10 -11 0 -5 -3 -8 -7 -6 -5 3 -7 -19 -6 -49 0 -30 -2 -56 -7 -59 -4 -3 -6
-31 -3 -62 2 -42 1 -54 -7 -43 -8 13 -10 13 -10 -2 0 -9 4 -19 8 -22 4 -2 6
-24 3 -48 l-5 -43 -7 35 c-5 22 -7 4 -4 -50 2 -59 1 -73 -5 -45 -7 38 -10 32
-15 -25 -1 -14 -5 -33 -9 -42 -5 -10 -6 -24 -3 -32 3 -7 -1 -23 -9 -35 -14
-19 -13 -21 1 -21 15 0 15 -2 1 -15 -8 -8 -19 -15 -25 -15 -5 0 -13 -9 -16
-20 -3 -11 -16 -25 -28 -32 -27 -14 -171 -15 -189 -1 -7 6 -25 13 -40 17 -16
3 -28 10 -28 15 0 5 -15 19 -33 30 -27 17 -36 31 -47 76 -7 30 -17 55 -22 55
-15 0 -8 37 12 60 13 15 18 30 14 39 -4 9 -9 34 -11 56 -2 31 -1 36 7 20 7
-16 9 -13 8 17 -1 20 -5 35 -9 32 -13 -7 -19 45 -13 101 5 38 3 55 -5 55 -6 0
-11 -5 -11 -12 0 -6 -2 -9 -5 -6 -10 9 6 37 23 40 14 3 14 5 -1 20 -15 15 -15
18 3 41 12 15 17 32 14 42 -6 15 -4 16 15 5 13 -6 34 -9 49 -5 15 4 36 9 47
11 11 2 25 11 31 19 7 9 28 19 48 22 21 3 38 12 41 22 3 9 13 17 22 18 139 10
158 9 170 -6 10 -13 14 -14 25 -3 11 11 11 13 -1 10 -8 -2 -17 5 -19 16 -4 18
-3 18 17 -1 13 -12 19 -26 15 -36z m-4234 -127 c0 -5 -8 -10 -17 -10 -15 0
-16 2 -3 10 19 12 20 12 20 0z m1991 -3 c-1 -12 -15 -9 -19 4 -3 6 1 10 8 8 6
-3 11 -8 11 -12z m229 -3 c0 -2 -9 -4 -20 -4 -11 0 -20 4 -20 9 0 5 9 7 20 4
11 -3 20 -7 20 -9z m2210 12 c0 -3 -4 -8 -10 -11 -5 -3 -10 -1 -10 4 0 6 5 11
10 11 6 0 10 -2 10 -4z m-2863 -12 c-3 -3 -12 -4 -19 -1 -8 3 -5 6 6 6 11 1
17 -2 13 -5z m-132 -14 c-3 -5 -10 -10 -16 -10 -5 0 -9 5 -9 10 0 6 7 10 16
10 8 0 12 -4 9 -10z m-240 -19 c-3 -6 -11 -11 -16 -11 -5 0 -4 6 3 14 14 16
24 13 13 -3z m200 9 c4 -6 -6 -10 -22 -9 -25 0 -26 1 -8 9 11 5 21 9 22 9 1 1
5 -3 8 -9z m405 -10 c0 -5 -5 -10 -11 -10 -5 0 -7 5 -4 10 3 6 8 10 11 10 2 0
4 -4 4 -10z m-410 -14 c0 -2 -7 -7 -16 -10 -8 -3 -12 -2 -9 4 6 10 25 14 25 6z
m4270 -19 c0 -18 -21 -37 -39 -37 -12 1 -10 4 5 13 12 7 19 18 17 25 -3 6 0
12 6 12 6 0 11 -6 11 -13z m-5506 -23 c5 -14 4 -15 -9 -4 -17 14 -19 20 -6 20
5 0 12 -7 15 -16z m2305 -14 c-10 -6 -15 -20 -14 -35 4 -29 2 -30 -19 -9 -14
14 -13 17 12 39 15 13 29 21 32 18 3 -2 -2 -9 -11 -13z m2506 0 c3 -5 1 -10
-4 -10 -6 0 -11 5 -11 10 0 6 2 10 4 10 3 0 8 -4 11 -10z m568 3 c-7 -2 -21
-2 -30 0 -10 3 -4 5 12 5 17 0 24 -2 18 -5z m-1796 -25 c-3 -8 -6 -5 -6 6 -1
11 2 17 5 13 3 -3 4 -12 1 -19z m-1023 -65 c-3 -21 -3 -85 -2 -143 8 -283 -6
-460 -34 -460 -5 0 -6 -4 -3 -10 3 -5 3 -10 -2 -10 -4 0 -19 -3 -32 -7 -22 -5
-22 -4 -11 17 7 14 9 36 5 59 -4 20 -7 137 -6 260 l1 224 43 53 c23 29 43 53
44 54 0 0 -1 -17 -3 -37z m-1864 -10 c0 -5 -5 -15 -10 -23 -9 -13 -11 -13 -20
0 -15 22 -12 30 10 30 11 0 20 -3 20 -7z m-423 -135 c-3 -8 -6 -5 -6 6 -1 11
2 17 5 13 3 -3 4 -12 1 -19z m1700 -25 c-3 -3 -11 -2 -17 2 -9 6 -9 10 1 16
14 8 27 -7 16 -18z m3156 7 c-3 -11 -9 -20 -15 -20 -5 0 -4 9 2 20 6 11 12 20
14 20 2 0 2 -9 -1 -20z m-1003 -37 c0 -13 -4 -10 -15 11 -19 36 -19 41 0 22 8
-8 15 -23 15 -33z m-2327 20 c-7 -2 -19 -2 -25 0 -7 3 -2 5 12 5 14 0 19 -2
13 -5z m3360 -12 c3 -13 1 -18 -9 -14 -7 2 -10 11 -7 19 7 19 10 18 16 -5z
m-4068 -9 c-3 -3 -11 0 -18 7 -9 10 -8 11 6 5 10 -3 15 -9 12 -12z m-502 -27
c-3 -9 -8 -14 -10 -11 -3 3 -2 9 2 15 9 16 15 13 8 -4z m-18 -35 c-3 -5 -10
-10 -16 -10 -5 0 -9 5 -9 10 0 6 7 10 16 10 8 0 12 -4 9 -10z m532 -102 c-3
-8 -6 -5 -6 6 -1 11 2 17 5 13 3 -3 4 -12 1 -19z m2988 -28 c3 -5 1 -10 -4
-10 -6 0 -11 5 -11 10 0 6 2 10 4 10 3 0 8 -4 11 -10z m-2595 -4 c0 -2 -8 -10
-17 -17 -16 -13 -17 -12 -4 4 13 16 21 21 21 13z m-1175 -65 c-6 -5 -25 10
-25 20 0 5 6 4 14 -3 8 -7 12 -15 11 -17z m1205 25 c0 -2 -7 -7 -16 -10 -8 -3
-12 -2 -9 4 6 10 25 14 25 6z m4385 -47 c-3 -36 -29 -58 -39 -33 -3 9 -2 12 4
9 6 -4 15 7 21 24 14 39 17 39 14 0z m-1034 -26 c13 -16 12 -17 -3 -4 -10 7
-18 15 -18 17 0 8 8 3 21 -13z m404 -33 c-3 -5 -12 -10 -18 -10 -7 0 -6 4 3
10 19 12 23 12 15 0z m-318 -6 c-3 -3 -12 -4 -19 -1 -8 3 -5 6 6 6 11 1 17 -2
13 -5z m268 -4 c-3 -5 -12 -10 -18 -10 -7 0 -6 4 3 10 19 12 23 12 15 0z m695
-109 c0 -5 -7 -14 -15 -21 -12 -10 -15 -10 -15 2 0 8 3 18 7 21 9 10 23 9 23
-2z m0 -61 c-15 -28 -24 -19 -16 16 5 19 10 24 17 17 8 -8 7 -18 -1 -33z
m-4759 3 c13 -16 12 -17 -3 -4 -17 13 -22 21 -14 21 2 0 10 -8 17 -17z m4794
-51 c-8 -8 -25 10 -25 26 0 13 2 13 14 -4 8 -10 13 -21 11 -22z m-4265 -2 c-8
-5 -19 -10 -25 -10 -5 0 -3 5 5 10 8 5 20 10 25 10 6 0 3 -5 -5 -10z m4120
-15 c0 -27 -1 -28 -24 -19 -21 8 -21 24 0 24 8 0 12 5 9 10 -3 6 -1 10 4 10 6
0 11 -11 11 -25z m-686 -40 c-7 -16 -24 -21 -24 -6 0 8 7 13 27 20 1 1 0 -6
-3 -14z m-4 -45 c0 -5 -2 -10 -4 -10 -3 0 -8 5 -11 10 -3 6 -1 10 4 10 6 0 11
-4 11 -10z m715 -10 c3 -5 1 -10 -4 -10 -6 0 -11 5 -11 10 0 6 2 10 4 10 3 0
8 -4 11 -10z m-3391 -381 c5 -31 3 -37 -16 -46 -13 -6 -47 -32 -76 -58 -43
-39 -55 -45 -67 -35 -10 8 -31 11 -63 7 l-47 -7 67 36 c36 20 95 59 130 88 34
29 64 53 64 52 1 0 4 -17 8 -37z m-3114 11 c0 -5 -5 -10 -11 -10 -5 0 -7 5 -4
10 3 6 8 10 11 10 2 0 4 -4 4 -10z m380 -143 c44 -29 124 -70 170 -86 19 -7
89 -30 155 -52 123 -41 175 -76 175 -117 -1 -16 -1 -16 -10 0 -11 17 -33 18
-225 4 -49 -4 -64 -1 -80 14 -28 26 -92 52 -120 48 -29 -4 -129 87 -121 109 3
8 6 35 6 59 0 24 3 44 8 44 4 0 23 -10 42 -23z m2431 -42 c-16 -19 -35 -52
-42 -74 -22 -74 9 -170 61 -186 12 -4 20 -15 20 -29 0 -22 -2 -23 -52 -15 -29
4 -137 9 -240 11 -160 3 -188 1 -192 -12 -10 -38 -4 52 7 106 18 86 37 111 89
119 81 12 263 63 318 88 30 14 57 26 59 26 1 1 -11 -15 -28 -34z m2403 -96 c9
-29 19 -80 22 -115 7 -68 20 -87 67 -98 26 -6 28 -10 21 -34 -4 -15 -7 -36 -7
-47 1 -11 -3 -33 -8 -50 l-9 -30 -122 7 c-161 10 -163 10 -164 39 0 13 -3 33
-7 44 -6 17 0 24 35 40 l43 20 0 100 c0 109 13 147 58 165 45 18 56 12 71 -41z
m-3564 -95 c0 -30 -3 -34 -14 -25 -17 14 -108 12 -119 -3 -5 -6 -6 0 -3 14 3
14 6 31 6 38 0 8 20 12 65 12 l65 0 0 -36z m-1034 -51 c-7 -7 -26 7 -26 19 0
6 6 6 15 -2 9 -7 13 -15 11 -17z"/>
<path d="M8726 9024 c-9 -23 -7 -36 3 -30 12 8 21 46 11 46 -4 0 -11 -7 -14
-16z"/>
<path d="M6837 8993 c-4 -3 -7 -11 -7 -17 0 -6 5 -5 12 2 6 6 9 14 7 17 -3 3
-9 2 -12 -2z"/>
<path d="M7935 8976 c-94 -30 -181 -93 -226 -165 -32 -50 -39 -75 -11 -42 22
27 118 60 196 68 128 12 277 -47 369 -147 59 -63 107 -141 127 -205 7 -22 16
-44 20 -50 12 -17 13 -135 0 -135 -6 0 -8 -4 -5 -10 3 -5 -2 -10 -12 -11 -12
-1 -10 -3 7 -8 23 -7 25 -12 25 -67 0 -73 -27 -145 -73 -196 -19 -21 -30 -38
-25 -38 9 0 87 49 113 72 31 26 70 80 65 88 -3 5 0 12 6 16 8 5 10 2 5 -7 -4
-8 2 -3 13 11 36 43 62 145 63 250 2 163 -52 312 -150 413 -26 26 -50 47 -55
47 -4 0 -19 11 -33 25 -84 84 -296 130 -419 91z"/>
<path d="M9060 8976 c-65 -18 -126 -52 -173 -96 -44 -40 -85 -100 -68 -100 5
0 11 3 13 8 8 17 87 44 147 49 144 12 256 -32 365 -141 66 -66 82 -90 148
-229 4 -9 11 -50 15 -91 6 -74 6 -74 -23 -90 l-29 -15 34 -1 34 0 -5 -63 c-6
-72 -35 -144 -79 -199 -16 -21 -28 -38 -25 -38 12 0 71 40 71 48 0 5 15 26 33
47 17 21 32 42 32 47 0 5 5 14 10 21 6 7 19 23 30 37 l19 25 1 -25 1 -25 19
23 c44 54 69 207 51 321 -14 90 -45 179 -68 198 -10 8 -12 12 -6 8 9 -4 11 -1
7 9 -3 9 -10 14 -14 11 -13 -8 -43 33 -36 50 3 9 2 14 -3 11 -9 -6 -81 69 -81
84 0 16 -69 62 -81 54 -7 -4 -9 -3 -6 3 3 5 -17 20 -45 32 -94 41 -201 51
-288 27z"/>
<path d="M6806 8944 c-5 -14 -4 -15 9 -4 17 14 19 20 6 20 -5 0 -12 -7 -15
-16z"/>
<path d="M6690 8798 c-12 -22 -12 -22 6 -6 10 10 15 20 12 24 -4 3 -12 -5 -18
-18z"/>
<path d="M6670 8760 c0 -5 5 -10 11 -10 5 0 7 5 4 10 -3 6 -8 10 -11 10 -2 0
-4 -4 -4 -10z"/>
<path d="M9570 8756 c0 -2 8 -10 18 -17 15 -13 16 -12 3 4 -13 16 -21 21 -21
13z"/>
<path d="M6656 8723 c-6 -14 -5 -15 5 -6 7 7 10 15 7 18 -3 3 -9 -2 -12 -12z"/>
<path d="M9750 8711 c0 -6 4 -13 10 -16 6 -3 7 1 4 9 -7 18 -14 21 -14 7z"/>
<path d="M6810 8693 c0 -6 -3 -18 -6 -27 -3 -9 -2 -16 4 -16 15 0 21 25 11 41
-5 9 -9 9 -9 2z"/>
<path d="M9771 8664 c0 -11 3 -14 6 -6 3 7 2 16 -1 19 -3 4 -6 -2 -5 -13z"/>
<path d="M9786 8615 c8 -37 14 -45 14 -19 0 10 -5 26 -10 34 -8 11 -9 7 -4
-15z"/>
<path d="M6610 8604 c0 -8 5 -12 10 -9 6 3 10 10 10 16 0 5 -4 9 -10 9 -5 0
-10 -7 -10 -16z"/>
<path d="M6838 8613 c7 -3 16 -2 19 1 4 3 -2 6 -13 5 -11 0 -14 -3 -6 -6z"/>
<path d="M9801 8554 c0 -11 3 -14 6 -6 3 7 2 16 -1 19 -3 4 -6 -2 -5 -13z"/>
<path d="M8047 8263 c-4 -3 -7 -32 -7 -62 0 -108 63 -176 156 -169 93 8 154
81 154 186 l0 52 -148 0 c-82 0 -152 -3 -155 -7z m193 -69 c0 -8 -7 -14 -15
-14 -15 0 -21 21 -9 33 10 9 24 -2 24 -19z m30 -33 c0 -6 -4 -13 -10 -16 -5
-3 -10 1 -10 9 0 9 5 16 10 16 6 0 10 -4 10 -9z m-40 -45 c0 -8 -7 -16 -15
-20 -17 -6 -18 -4 -9 18 8 20 24 21 24 2z"/>
<path d="M9070 8225 c0 -103 69 -185 157 -185 93 0 155 63 161 166 l4 64 -161
0 -161 0 0 -45z m213 -12 c9 -9 -13 -34 -24 -27 -14 8 -11 34 4 34 8 0 17 -3
20 -7z m30 -59 c-8 -22 -32 -17 -26 5 3 11 11 17 18 14 8 -2 11 -11 8 -19z
m-40 -33 c3 -14 -1 -18 -19 -18 -27 0 -29 2 -11 22 16 19 24 18 30 -4z"/>
<path d="M5193 7998 c-18 -21 -18 -21 2 -14 18 7 18 6 -2 -16 -85 -91 -33
-248 90 -275 15 -3 27 -9 27 -14 0 -20 34 -7 66 25 32 32 34 38 34 100 0 70
-16 122 -43 145 -9 7 -15 17 -12 21 9 15 -60 48 -102 48 -30 1 -46 -5 -60 -20z"/>
<path d="M3820 7789 c0 -5 5 -7 10 -4 6 3 10 8 10 11 0 2 -4 4 -10 4 -5 0 -10
-5 -10 -11z"/>
<path d="M4678 7033 c7 -3 16 -2 19 1 4 3 -2 6 -13 5 -11 0 -14 -3 -6 -6z"/>
<path d="M4736 7018 c3 -4 11 -8 17 -8 7 0 42 -16 79 -34 77 -39 185 -119 273
-201 53 -50 60 -54 65 -36 3 11 38 54 77 95 73 76 88 107 20 41 -36 -35 -55
-46 -41 -23 9 15 -10 3 -59 -36 l-37 -30 -32 30 c-18 16 -35 32 -38 35 -22 26
-162 123 -208 145 -53 26 -126 39 -116 22z m472 -199 c-9 -5 -24 -16 -32 -24
-8 -8 -18 -15 -23 -15 -4 1 7 14 26 30 19 16 37 27 40 24 3 -3 -2 -10 -11 -15z"/>
<path d="M5355 6978 c-11 -6 -23 -16 -27 -22 -11 -17 -9 -38 3 -34 6 2 9 6 7
10 -6 11 36 49 49 44 7 -3 13 -1 13 4 0 13 -20 12 -45 -2z"/>
<path d="M4028 6969 c-10 -6 -17 -20 -16 -34 3 -27 18 -23 18 5 0 13 10 22 33
29 28 8 29 9 7 10 -14 0 -33 -4 -42 -10z"/>
<path d="M5720 6889 c-112 -18 -276 -125 -320 -209 -7 -14 -9 -22 -5 -18 4 4
22 -4 39 -17 90 -69 274 -45 350 45 14 17 29 38 34 46 6 12 14 12 42 3 130
-41 268 -165 334 -301 42 -87 81 -258 58 -258 -5 0 -7 -13 -4 -30 8 -53 -8
-97 -63 -180 -30 -46 -55 -86 -55 -89 0 -4 -9 -15 -21 -24 -17 -15 -18 -21 -8
-33 7 -8 19 -12 28 -9 10 4 7 -3 -8 -19 -13 -13 -30 -22 -37 -19 -9 3 -14 0
-12 -8 2 -8 -17 -20 -47 -31 -49 -17 -50 -17 -10 -12 124 17 264 134 336 279
40 80 44 95 44 165 2 219 -24 327 -112 457 -50 74 -51 93 -3 36 18 -21 27 -29
22 -18 -14 27 -109 125 -149 154 -53 36 -38 18 27 -34 33 -26 60 -52 60 -57 0
-4 -28 15 -62 43 -86 69 -207 128 -288 139 -75 11 -95 11 -170 -1z m-3 -205
c7 -19 -9 -37 -30 -32 -11 2 -12 9 -6 26 10 26 27 29 36 6z m-162 -44 c3 -5 1
-10 -4 -10 -6 0 -11 5 -11 10 0 6 2 10 4 10 3 0 8 -4 11 -10z"/>
<path d="M4380 6874 c-91 -24 -180 -74 -246 -140 -34 -34 -68 -72 -74 -85
l-13 -24 24 22 c29 26 128 76 185 93 l41 12 42 -44 c81 -89 248 -133 343 -90
l46 20 29 -20 c42 -31 107 -112 143 -179 51 -96 69 -172 64 -280 -4 -94 -30
-219 -45 -219 -5 0 -12 -18 -15 -41 -4 -22 -13 -43 -20 -46 -8 -3 -14 -11 -14
-19 0 -13 -13 -19 -33 -15 -5 1 -6 -3 -2 -9 3 -5 2 -10 -3 -10 -6 0 -13 -7
-16 -16 -4 -11 3 -9 27 7 l32 23 -24 -27 c-14 -15 -47 -39 -75 -53 -47 -23
-48 -25 -16 -19 85 17 219 129 275 229 72 129 90 220 70 363 -23 179 -76 286
-199 408 -44 44 -79 83 -78 87 1 4 -6 4 -15 1 -12 -5 -14 -3 -8 7 5 8 4 11 -2
7 -6 -4 -37 7 -69 23 -33 16 -79 34 -104 39 -64 15 -185 12 -250 -5z m80 -214
c13 -8 13 -10 -2 -10 -9 0 -20 5 -23 10 -8 13 5 13 25 0z m150 -20 c0 -21 -22
-26 -54 -14 -15 6 -15 8 1 20 27 20 53 17 53 -6z"/>
<path d="M4915 6725 c56 -55 92 -102 118 -152 21 -40 40 -73 43 -73 3 0 -12
32 -32 71 -40 76 -101 149 -167 201 -23 18 -6 -3 38 -47z"/>
<path d="M3335 6760 c-3 -6 1 -7 9 -4 18 7 21 14 7 14 -6 0 -13 -4 -16 -10z"/>
<path d="M3245 6677 c-101 -106 -187 -217 -168 -217 4 0 19 17 33 37 37 56 53
73 62 67 4 -3 8 1 8 9 0 18 40 70 48 62 4 -3 0 -10 -8 -15 -8 -5 -11 -12 -7
-17 10 -9 28 18 22 34 -2 6 0 13 4 15 4 2 24 22 45 46 60 66 27 49 -39 -21z"/>
<path d="M6325 6590 c9 -16 18 -30 21 -30 2 0 -2 14 -11 30 -9 17 -18 30 -21
30 -2 0 2 -13 11 -30z"/>
<path d="M9135 6470 c-3 -6 -11 -8 -16 -5 -5 4 -9 -12 -9 -35 0 -46 16 -51 37
-10 10 20 11 21 16 4 3 -14 5 -12 6 7 1 29 -23 57 -34 39z"/>
<path d="M3054 6438 c-4 -7 -14 -24 -22 -38 -14 -24 -13 -24 3 -5 20 24 37 55
31 55 -3 0 -8 -6 -12 -12z"/>
<path d="M9120 6370 c0 -5 5 -10 10 -10 6 0 10 5 10 10 0 6 -4 10 -10 10 -5 0
-10 -4 -10 -10z"/>
<path d="M4013 6158 c-13 -6 -23 -15 -23 -20 0 -14 16 -9 35 12 20 22 19 23
-12 8z"/>
<path d="M8260 6155 c-73 -15 -153 -44 -220 -80 -59 -31 -38 -32 26 -1 100 48
220 78 359 89 22 2 9 4 -30 4 -38 1 -99 -5 -135 -12z"/>
<path d="M8548 6153 c6 -2 18 -2 25 0 6 3 1 5 -13 5 -14 0 -19 -2 -12 -5z"/>
<path d="M8669 6125 c40 -14 75 -24 78 -22 5 6 -77 36 -117 42 -19 4 -2 -5 39
-20z"/>
<path d="M9158 6024 c-3 -14 1 -25 14 -33 17 -10 18 -10 10 6 -5 10 -11 25
-14 33 -3 10 -6 9 -10 -6z"/>
<path d="M4870 5880 c0 -5 5 -10 10 -10 6 0 10 5 10 10 0 6 -4 10 -10 10 -5 0
-10 -4 -10 -10z"/>
<path d="M3212 5253 c5 -25 28 -28 28 -4 0 12 -6 21 -16 21 -9 0 -14 -7 -12
-17z"/>
<path d="M3278 5263 c7 -3 16 -2 19 1 4 3 -2 6 -13 5 -11 0 -14 -3 -6 -6z"/>
<path d="M3346 5203 c2 -6 -2 -13 -8 -15 -6 -2 1 -12 16 -21 14 -10 26 -13 26
-8 0 5 3 16 6 25 4 11 0 16 -14 16 -11 0 -22 3 -25 8 -2 4 -2 2 -1 -5z"/>
<path d="M3930 5095 c0 -8 5 -15 10 -15 6 0 10 7 10 15 0 8 -4 15 -10 15 -5 0
-10 -7 -10 -15z"/>
<path d="M3910 5050 c0 -5 5 -10 11 -10 5 0 7 5 4 10 -3 6 -8 10 -11 10 -2 0
-4 -4 -4 -10z"/>
<path d="M3491 5024 c0 -11 3 -14 6 -6 3 7 2 16 -1 19 -3 4 -6 -2 -5 -13z"/>
<path d="M4706 4957 c12 -31 157 -108 201 -106 10 0 2 6 -17 13 -61 23 -134
63 -154 85 -22 24 -38 28 -30 8z"/>
<path d="M5090 4840 c-9 -6 -10 -10 -3 -10 6 0 15 5 18 10 8 12 4 12 -15 0z"/>
<path d="M3250 4038 c0 -25 3 -29 10 -18 13 20 13 50 0 50 -5 0 -10 -15 -10
-32z"/>
<path d="M9526 3771 c-4 -7 -5 -15 -2 -18 9 -9 19 4 14 18 -4 11 -6 11 -12 0z"/>
<path d="M2820 3618 c-8 -13 -16 -48 -17 -78 -9 -148 -10 -140 24 -170 17 -16
38 -49 48 -79 9 -28 20 -53 23 -55 4 -2 6 66 6 152 -3 224 -2 215 -19 208 -10
-3 -17 3 -21 19 -8 31 -25 32 -44 3z m19 -208 c0 -9 -4 -8 -9 5 -5 11 -9 27
-9 35 0 9 4 8 9 -5 5 -11 9 -27 9 -35z"/>
</g>
</svg>
